<svg width="48" height="48" viewBox="0 0 48 48" fill="none" xmlns="http://www.w3.org/2000/svg">
<rect x="1.5" y="1.5" width="45" height="45" fill="url(#paint0_linear_1_92)"/>
<path d="M34 23.2116C34 23.6719 33.658 24.0522 33.2143 24.1124L33.0909 24.1207L17.1103 24.12L22.8836 29.8697C23.2394 30.224 23.2406 30.7996 22.8864 31.1554C22.5643 31.4788 22.0594 31.5092 21.7029 31.2459L21.6007 31.1581L14.2674 23.8563C14.2205 23.8096 14.1798 23.7591 14.1452 23.7057C14.1354 23.6897 14.1255 23.6732 14.1161 23.6565C14.1074 23.6421 14.0996 23.6272 14.0922 23.6121C14.0819 23.5901 14.0719 23.5675 14.0628 23.5443C14.0554 23.5265 14.0492 23.5091 14.0436 23.4916C14.0369 23.4699 14.0304 23.4468 14.0248 23.4234C14.0206 23.407 14.0173 23.3912 14.0145 23.3754C14.0104 23.3518 14.007 23.3274 14.0045 23.3028C14.0024 23.284 14.0011 23.2653 14.0004 23.2467C14.0002 23.2354 14 23.2235 14 23.2116L14.0005 23.1764C14.0012 23.1586 14.0024 23.1407 14.0041 23.123L14 23.2116C14 23.1543 14.0053 23.0981 14.0155 23.0437C14.0178 23.0307 14.0206 23.0174 14.0238 23.0041C14.0302 22.9767 14.0377 22.9504 14.0463 22.9245C14.0505 22.9117 14.0554 22.898 14.0606 22.8844C14.0713 22.857 14.0828 22.8309 14.0955 22.8055C14.1014 22.7936 14.108 22.7811 14.115 22.7687C14.1263 22.7485 14.138 22.7293 14.1504 22.7106C14.1591 22.6974 14.1688 22.6836 14.1789 22.6701L14.1868 22.6596C14.2112 22.6276 14.2378 22.5973 14.2663 22.5688L14.2674 22.568L21.6007 15.2649C21.9564 14.9107 22.532 14.9118 22.8863 15.2676C23.2084 15.591 23.2367 16.0961 22.9719 16.4515L22.8837 16.5532L17.1127 22.3018L33.0909 22.3025C33.593 22.3025 34 22.7096 34 23.2116Z" fill="white"/>
<rect x="1.5" y="1.5" width="45" height="45" stroke="url(#paint1_linear_1_92)" stroke-width="3"/>
<defs>
<linearGradient id="paint0_linear_1_92" x1="49.6098" y1="5.46807e-06" x2="-2.23816" y2="2.55342" gradientUnits="userSpaceOnUse">
<stop stop-color="#2977AC"/>
<stop offset="0.339427" stop-color="#96C7E1"/>
<stop offset="0.661445" stop-color="#EDBBD5"/>
<stop offset="1" stop-color="#BF6DB3"/>
</linearGradient>
<linearGradient id="paint1_linear_1_92" x1="1.13684" y1="48" x2="50.925" y2="44.7453" gradientUnits="userSpaceOnUse">
<stop stop-color="#BF6DB3"/>
<stop offset="0.343062" stop-color="#EDBBD5"/>
<stop offset="0.671619" stop-color="#96C7E1"/>
<stop offset="1" stop-color="#2977AC"/>
</linearGradient>
</defs>
</svg>
