<svg width="48" height="48" viewBox="0 0 48 48" fill="none" xmlns="http://www.w3.org/2000/svg">
<rect x="1.5" y="1.5" width="45" height="45" fill="url(#paint0_linear_1_96)"/>
<path d="M15 24.2115C15 23.7512 15.342 23.3709 15.7857 23.3107L15.9091 23.3024L31.8897 23.3031L26.1164 17.5534C25.7606 17.1991 25.7594 16.6235 26.1136 16.2677C26.4357 15.9443 26.9406 15.9138 27.2971 16.1771L27.3993 16.2649L34.7326 23.5668C34.7795 23.6135 34.8202 23.664 34.8548 23.7174C34.8646 23.7334 34.8745 23.7499 34.8839 23.7666C34.8926 23.781 34.9004 23.7959 34.9078 23.811C34.9181 23.833 34.9281 23.8556 34.9372 23.8788C34.9446 23.8966 34.9508 23.914 34.9564 23.9315C34.9631 23.9532 34.9696 23.9763 34.9752 23.9997C34.9794 24.0161 34.9827 24.0319 34.9855 24.0477C34.9896 24.0713 34.993 24.0956 34.9955 24.1203C34.9976 24.1391 34.9989 24.1578 34.9996 24.1764C34.9998 24.1877 35 24.1996 35 24.2115L34.9995 24.2467C34.9988 24.2645 34.9976 24.2823 34.9959 24.3001L35 24.2115C35 24.2688 34.9947 24.325 34.9845 24.3794C34.9822 24.3924 34.9794 24.4057 34.9762 24.419C34.9698 24.4464 34.9623 24.4727 34.9537 24.4986C34.9495 24.5114 34.9446 24.5251 34.9394 24.5387C34.9287 24.5661 34.9172 24.5922 34.9045 24.6176C34.8986 24.6295 34.892 24.642 34.885 24.6544C34.8737 24.6746 34.862 24.6938 34.8496 24.7125C34.8409 24.7257 34.8312 24.7395 34.8211 24.753L34.8132 24.7635C34.7888 24.7955 34.7622 24.8258 34.7337 24.8543L34.7326 24.8551L27.3993 32.1582C27.0436 32.5124 26.468 32.5113 26.1137 32.1555C25.7916 31.8321 25.7633 31.327 26.0281 30.9716L26.1163 30.8699L31.8873 25.1213L15.9091 25.1206C15.407 25.1206 15 24.7135 15 24.2115Z" fill="white"/>
<rect x="1.5" y="1.5" width="45" height="45" stroke="url(#paint1_linear_1_96)" stroke-width="3"/>
<defs>
<linearGradient id="paint0_linear_1_96" x1="49.6098" y1="5.46807e-06" x2="-2.23816" y2="2.55342" gradientUnits="userSpaceOnUse">
<stop stop-color="#2977AC"/>
<stop offset="0.339427" stop-color="#96C7E1"/>
<stop offset="0.661445" stop-color="#EDBBD5"/>
<stop offset="1" stop-color="#BF6DB3"/>
</linearGradient>
<linearGradient id="paint1_linear_1_96" x1="1.13684" y1="48" x2="50.925" y2="44.7453" gradientUnits="userSpaceOnUse">
<stop stop-color="#BF6DB3"/>
<stop offset="0.343062" stop-color="#EDBBD5"/>
<stop offset="0.671619" stop-color="#96C7E1"/>
<stop offset="1" stop-color="#2977AC"/>
</linearGradient>
</defs>
</svg>
